<?xml version="1.0" encoding="UTF-8" standalone="no"?><!DOCTYPE svg PUBLIC "-//W3C//DTD SVG 1.1//EN" "http://www.w3.org/Graphics/SVG/1.1/DTD/svg11.dtd"><svg width="100%" height="100%" viewBox="0 0 650 259" version="1.1" xmlns="http://www.w3.org/2000/svg" xmlns:xlink="http://www.w3.org/1999/xlink" xml:space="preserve" style="fill-rule:evenodd;clip-rule:evenodd;stroke-linejoin:round;stroke-miterlimit:1.41421;"><path d="M649.129,129.218c0,71.37 -57.866,129.223 -129.236,129.223c-71.362,0 -129.208,-57.853 -129.208,-129.223c0,-71.372 57.846,-129.218 129.208,-129.218c71.37,0 129.236,57.846 129.236,129.218Z" style="fill:#bdbfc1;fill-rule:nonzero;"/><rect x="492.185" y="37.828" width="58.574" height="182.098" style="fill:#fff;fill-rule:nonzero;"/><rect x="430.332" y="98.922" width="182.096" height="58.569" style="fill:#fff;fill-rule:nonzero;"/><path d="M13.378,96.273l0,8.69c6.775,-6.776 13.108,-10.016 19.295,-10.016c8.395,0 15.317,4.124 19.737,11.931c5.744,-6.48 12.666,-11.931 22.093,-11.931c13.402,0 21.945,10.31 21.945,25.924l0,41.534l-13.108,0l0,-40.946c0,-10.015 -6.187,-15.464 -13.698,-15.464c-4.272,-0.148 -10.015,3.535 -14.729,8.396l0,48.014l-13.108,0l0,-41.093c0,-10.751 -5.449,-15.317 -11.931,-15.317c-6.627,0 -11.046,2.062 -16.496,8.396l0,48.014l-13.109,0l0,-66.132l13.109,0Z" style="fill:#009b7b;fill-rule:nonzero;"/><path d="M123.843,128.677c0,13.991 8.691,23.271 21.357,23.271c13.845,0 22.535,-8.838 22.535,-23.124c0,-12.814 -9.426,-22.093 -22.535,-22.093c-12.373,0 -21.357,9.279 -21.357,21.946Zm57.295,0c0,20.916 -14.581,35.053 -35.791,35.053c-20.325,0 -34.908,-14.727 -34.908,-35.053c0,-19 15.171,-33.73 34.908,-33.73c20.767,0 35.791,14.141 35.791,33.73Z" style="fill:#009b7b;fill-rule:nonzero;"/><path d="M209.709,96.273l0,15.171l0.295,0c6.628,-11.637 12.962,-16.497 19.148,-16.497c5.301,0 10.309,2.504 15.759,7.66l-6.922,11.341c-3.977,-3.829 -9.132,-6.481 -12.225,-6.481c-8.984,0 -16.055,8.986 -16.055,20.326l0,34.612l-13.107,0l0,-66.132l13.107,0Z" style="fill:#009b7b;fill-rule:nonzero;"/><path d="M272.272,96.273l20.916,0l0,11.784l-20.916,0l0,33.877c0,7.805 5.598,10.014 9.427,10.014c4.713,0 9.573,-1.621 14.876,-4.86l0,12.225c-4.566,2.504 -11.636,4.417 -15.907,4.417c-14.287,0 -21.504,-8.836 -21.504,-20.766l0,-34.907l-11.489,0l0,-1.473l24.597,-24.009l0,13.698Z" style="fill:#009b7b;fill-rule:nonzero;"/><path d="M327.504,107.615c-7.216,0 -13.108,5.449 -13.108,11.93c0,7.217 5.302,12.078 13.256,12.078c7.364,0 12.666,-5.156 12.666,-12.373c0,-6.333 -5.89,-11.635 -12.814,-11.635Zm-3.387,58.031c-8.838,0 -15.023,4.124 -15.023,10.016c0,6.629 6.479,10.164 18.41,10.164c11.489,0 18.264,-3.535 18.264,-9.575c0,-8.397 -13.55,-10.605 -21.651,-10.605Zm34.612,-59.209l-13.55,0c5.155,5.155 6.922,8.836 6.922,14.434c0,5.449 -3.093,11.783 -6.185,14.876c-8.839,9.426 -26.807,4.713 -26.807,12.52c0,3.681 6.921,5.89 20.179,8.542c14.139,2.798 19.147,10.015 19.147,18.411c0,13.107 -11.636,21.062 -31.225,21.062c-17.822,0 -30.488,-8.394 -30.488,-20.031c0,-9.72 5.154,-15.466 16.643,-18.265c-4.567,-2.798 -6.628,-5.448 -6.628,-8.393c0,-4.273 4.124,-7.954 10.457,-9.427l0,-0.295c-4.86,-2.062 -8.543,-4.86 -11.047,-8.395c-2.355,-3.389 -3.535,-7.512 -3.535,-12.372c0,-14.141 11.047,-22.831 28.868,-22.831l27.249,0l0,10.164Z" style="fill:#009b7b;fill-rule:nonzero;"/><path d="M397.611,129.708c-11.194,3.829 -20.916,7.658 -20.916,15.465c0,5.45 3.978,9.279 9.426,9.279c4.125,0 7.954,-2.061 11.49,-5.449l0,-19.295Zm22.535,28.869c-6.039,3.975 -8.543,5.153 -12.668,5.153c-5.743,0 -8.834,-2.061 -10.016,-6.775c-5.743,4.567 -11.782,6.775 -17.82,6.775c-9.722,0 -16.202,-7.658 -16.202,-16.201c0,-13.108 11.929,-17.085 22.533,-20.914l11.638,-4.124l0,-3.535c0,-8.248 -3.976,-11.636 -11.931,-11.636c-7.215,0 -14.58,3.388 -20.913,10.9l0,-14.288c5.153,-6.039 12.37,-8.985 21.943,-8.985c13.404,0 24.008,6.777 24.008,21.799l0,34.025c0,2.502 0.885,3.386 2.506,3.386c1.324,0 3.977,-1.325 6.922,-3.534l0,7.954Z" style="fill:#009b7b;fill-rule:nonzero;"/><path d="M453.284,107.615c-7.219,0 -13.111,5.449 -13.111,11.93c0,7.217 5.305,12.078 13.257,12.078c7.364,0 12.669,-5.156 12.669,-12.373c0,-6.333 -5.893,-11.635 -12.815,-11.635Zm-3.389,58.031c-8.837,0 -15.024,4.124 -15.024,10.016c0,6.629 6.482,10.164 18.413,10.164c11.488,0 18.262,-3.535 18.262,-9.575c0,-8.397 -13.551,-10.605 -21.651,-10.605Zm34.612,-59.209l-13.549,0c5.155,5.155 6.923,8.836 6.923,14.434c0,5.449 -3.095,11.783 -6.186,14.876c-8.838,9.426 -26.808,4.713 -26.808,12.52c0,3.681 6.923,5.89 20.178,8.542c14.142,2.798 19.149,10.015 19.149,18.411c0,13.107 -11.637,21.062 -31.225,21.062c-17.822,0 -30.489,-8.394 -30.489,-20.031c0,-9.72 5.155,-15.466 16.644,-18.265c-4.566,-2.798 -6.629,-5.448 -6.629,-8.393c0,-4.273 4.123,-7.954 10.459,-9.427l0,-0.295c-4.862,-2.062 -8.544,-4.86 -11.047,-8.395c-2.359,-3.389 -3.535,-7.512 -3.535,-12.372c0,-14.141 11.046,-22.831 28.868,-22.831l27.247,0l0,10.164Z" style="fill:#009b7b;fill-rule:nonzero;"/><path d="M538.117,122.638c-0.439,-10.016 -6.185,-16.349 -15.464,-16.349c-10.015,0 -16.056,5.891 -17.822,16.349l33.286,0Zm11.785,33.287c-7.955,5.303 -15.174,7.805 -26.364,7.805c-20.622,0 -32.109,-16.938 -32.109,-35.201c0,-20.031 12.666,-33.582 30.928,-33.582c17.53,0 28.722,11.931 28.722,36.382l-46.541,0c2.059,13.108 9.569,19.883 22.24,19.883c7.95,0 15.462,-2.945 23.124,-7.953l0,12.666Z" style="fill:#009b7b;fill-rule:nonzero;"/><path d="M8.541,197.346l0,5.466c4.413,-4.263 8.54,-6.299 12.57,-6.299c5.47,0 9.979,2.593 12.858,7.506c3.743,-4.079 8.253,-7.506 14.394,-7.506c8.733,0 14.298,6.484 14.298,16.309l0,26.128l-8.541,0l0,-25.758c0,-6.302 -4.03,-9.728 -8.924,-9.728c-2.783,-0.097 -6.525,2.22 -9.595,5.28l0,30.206l-8.541,0l0,-25.852c0,-6.763 -3.55,-9.634 -7.772,-9.634c-4.318,0 -7.197,1.295 -10.747,5.28l0,30.206l-8.541,0l0,-41.604l8.541,0Z" style="fill:#adb0b2;fill-rule:nonzero;"/><path d="M102.677,213.93c-0.289,-6.299 -4.031,-10.283 -10.077,-10.283c-6.525,0 -10.46,3.706 -11.611,10.283l21.688,0Zm7.676,20.943c-5.182,3.338 -9.883,4.911 -17.177,4.911c-13.434,0 -20.92,-10.655 -20.92,-22.143c0,-12.605 8.253,-21.128 20.152,-21.128c11.419,0 18.713,7.506 18.713,22.886l-30.324,0c1.343,8.246 6.237,12.509 14.49,12.509c5.183,0 10.076,-1.853 15.066,-5.004l0,7.969Z" style="fill:#adb0b2;fill-rule:nonzero;"/><path d="M178.003,238.95l-8.54,0l0,-41.604l8.54,0l0,41.604Zm-4.223,-49.295c-2.782,0 -5.085,-2.224 -5.085,-4.912c0,-2.687 2.303,-4.911 5.085,-4.911c2.784,0 5.086,2.224 5.086,4.911c0,2.688 -2.302,4.912 -5.086,4.912Z" style="fill:#adb0b2;fill-rule:nonzero;"/><path d="M221.951,208.187c-4.894,-3.151 -8.156,-4.079 -11.898,-4.079c-7.773,0 -13.147,5.655 -13.147,14.084c0,8.62 5.758,13.809 14.586,13.809c3.646,0 7.102,-0.925 11.419,-2.779l0,8.153c-2.878,1.299 -8.349,2.409 -12.858,2.409c-12.859,0 -21.879,-8.619 -21.879,-20.846c0,-13.716 8.252,-22.425 21.303,-22.425c4.989,0 8.348,1.111 12.474,2.872l0,8.802Z" style="fill:#adb0b2;fill-rule:nonzero;"/><path d="M257.359,208.094c-4.798,-3.058 -9.308,-4.357 -12.474,-4.357c-3.455,0 -5.662,1.577 -5.662,3.801c0,1.855 2.878,4.078 10.46,8.339c7.101,4.541 9.692,7.416 9.692,11.676c0,7.32 -6.045,12.231 -14.202,12.231c-5.277,0 -9.404,-1.017 -14.97,-3.801l0,-8.893c5.566,3.705 10.651,5.467 14.106,5.467c3.455,-0.186 6.334,-1.762 6.334,-4.727c0,-5.743 -20.151,-8.802 -20.151,-20.015c0,-7.042 5.565,-11.302 14.201,-11.302c4.03,0 8.157,1.111 12.666,3.427l0,8.154Z" style="fill:#adb0b2;fill-rule:nonzero;"/><clipPath id="_clip1"><rect x="118.111" y="179.556" width="41.8" height="60.818"/></clipPath><g clip-path="url(#_clip1)"><path d="M149.024,205.498c-2.879,-1.109 -5.086,-1.572 -7.965,-1.572c-8.252,0 -13.818,5.744 -13.818,14.452c0,7.787 3.262,13.623 13.146,13.623l8.637,0l0,-26.503Zm8.539,33.452l-18.135,0c-12.858,0 -20.919,-8.433 -20.919,-21.774c0,-12.047 8.924,-20.663 21.494,-20.663c2.88,0 5.566,0.463 9.021,1.666l0,-22.423l8.539,0l0,63.194Z" style="fill:#adb0b2;fill-rule:nonzero;"/></g></svg>